<?xml version="1.0" encoding="UTF-8" standalone="no"?>
<!DOCTYPE svg PUBLIC "-//W3C//DTD SVG 1.1//EN"
 "http://www.w3.org/Graphics/SVG/1.1/DTD/svg11.dtd">
<!-- Generated by graphviz version 2.43.0 (0)
 -->
<!-- Title: G Pages: 1 -->
<svg width="510pt" height="188pt"
 viewBox="0.00 0.00 510.43 188.00" xmlns="http://www.w3.org/2000/svg" xmlns:xlink="http://www.w3.org/1999/xlink">
<g id="graph0" class="graph" transform="scale(1 1) rotate(0) translate(4 184)">
<title>G</title>
<polygon fill="white" stroke="transparent" points="-4,4 -4,-184 506.43,-184 506.43,4 -4,4"/>
<!-- High&#45;Level Requirements -->
<g id="node1" class="node">
<title>High&#45;Level Requirements</title>
<ellipse fill="none" stroke="black" cx="256.09" cy="-162" rx="129.18" ry="18"/>
<text text-anchor="middle" x="256.09" y="-158.3" font-family="Times,serif" font-size="14.00">High&#45;Level Requirements</text>
</g>
<!-- Low&#45;Level Requirements -->
<g id="node2" class="node">
<title>Low&#45;Level Requirements</title>
<ellipse fill="none" stroke="black" cx="126.09" cy="-90" rx="126.18" ry="18"/>
<text text-anchor="middle" x="126.09" y="-86.3" font-family="Times,serif" font-size="14.00">Low&#45;Level Requirements</text>
</g>
<!-- High&#45;Level Requirements&#45;&gt;Low&#45;Level Requirements -->
<g id="edge1" class="edge">
<title>High&#45;Level Requirements&#45;&gt;Low&#45;Level Requirements</title>
<path fill="none" stroke="black" d="M225.28,-144.41C207.39,-134.78 184.67,-122.54 165.49,-112.22"/>
<polygon fill="black" stroke="black" points="167.14,-109.13 156.68,-107.47 163.82,-115.29 167.14,-109.13"/>
</g>
<!-- User Acceptance Tests -->
<g id="node5" class="node">
<title>User Acceptance Tests</title>
<ellipse fill="none" stroke="black" cx="386.09" cy="-90" rx="116.18" ry="18"/>
<text text-anchor="middle" x="386.09" y="-86.3" font-family="Times,serif" font-size="14.00">User Acceptance Tests</text>
</g>
<!-- High&#45;Level Requirements&#45;&gt;User Acceptance Tests -->
<g id="edge4" class="edge">
<title>High&#45;Level Requirements&#45;&gt;User Acceptance Tests</title>
<path fill="none" stroke="black" d="M286.9,-144.41C304.79,-134.78 327.51,-122.54 346.69,-112.22"/>
<polygon fill="black" stroke="black" points="348.36,-115.29 355.5,-107.47 345.04,-109.13 348.36,-115.29"/>
</g>
<!-- Code -->
<g id="node3" class="node">
<title>Code</title>
<ellipse fill="none" stroke="black" cx="71.09" cy="-18" rx="34.39" ry="18"/>
<text text-anchor="middle" x="71.09" y="-14.3" font-family="Times,serif" font-size="14.00">Code</text>
</g>
<!-- Low&#45;Level Requirements&#45;&gt;Code -->
<g id="edge2" class="edge">
<title>Low&#45;Level Requirements&#45;&gt;Code</title>
<path fill="none" stroke="black" d="M112.77,-72.05C105.89,-63.29 97.37,-52.45 89.83,-42.86"/>
<polygon fill="black" stroke="black" points="92.46,-40.53 83.53,-34.83 86.95,-44.86 92.46,-40.53"/>
</g>
<!-- Unit Tests -->
<g id="node4" class="node">
<title>Unit Tests</title>
<ellipse fill="none" stroke="black" cx="182.09" cy="-18" rx="58.49" ry="18"/>
<text text-anchor="middle" x="182.09" y="-14.3" font-family="Times,serif" font-size="14.00">Unit Tests</text>
</g>
<!-- Low&#45;Level Requirements&#45;&gt;Unit Tests -->
<g id="edge3" class="edge">
<title>Low&#45;Level Requirements&#45;&gt;Unit Tests</title>
<path fill="none" stroke="black" d="M139.64,-72.05C146.45,-63.54 154.83,-53.07 162.34,-43.68"/>
<polygon fill="black" stroke="black" points="165.14,-45.78 168.66,-35.79 159.68,-41.41 165.14,-45.78"/>
</g>
</g>
</svg>
